<mxfile host="app.diagrams.net" agent="Mozilla/5.0 (Macintosh; Intel Mac OS X 10_15_7) AppleWebKit/605.1.15 (KHTML, like Gecko) Version/18.0 Safari/605.1.15" version="24.9.3">
  <diagram name="Page-1" id="jw1H-ovvWYdLWjVF_LY2">
    <mxGraphModel dx="936" dy="659" grid="1" gridSize="10" guides="1" tooltips="1" connect="1" arrows="1" fold="1" page="1" pageScale="1" pageWidth="827" pageHeight="1169" math="0" shadow="0">
      <root>
        <mxCell id="0" />
        <mxCell id="1" parent="0" />
        <mxCell id="jTYP-uvuEeYxCYvf-vFX-19" style="rounded=0;orthogonalLoop=1;jettySize=auto;html=1;entryX=0;entryY=0.5;entryDx=0;entryDy=0;" edge="1" parent="1" source="jTYP-uvuEeYxCYvf-vFX-1" target="jTYP-uvuEeYxCYvf-vFX-2">
          <mxGeometry relative="1" as="geometry" />
        </mxCell>
        <mxCell id="jTYP-uvuEeYxCYvf-vFX-20" style="rounded=0;orthogonalLoop=1;jettySize=auto;html=1;entryX=0;entryY=0.5;entryDx=0;entryDy=0;" edge="1" parent="1" source="jTYP-uvuEeYxCYvf-vFX-1" target="jTYP-uvuEeYxCYvf-vFX-3">
          <mxGeometry relative="1" as="geometry" />
        </mxCell>
        <mxCell id="jTYP-uvuEeYxCYvf-vFX-1" value="User" style="shape=umlActor;verticalLabelPosition=bottom;verticalAlign=top;html=1;outlineConnect=0;" vertex="1" parent="1">
          <mxGeometry x="20" y="350" width="30" height="60" as="geometry" />
        </mxCell>
        <mxCell id="jTYP-uvuEeYxCYvf-vFX-6" style="rounded=0;orthogonalLoop=1;jettySize=auto;html=1;exitX=1;exitY=0;exitDx=0;exitDy=0;entryX=0;entryY=0.5;entryDx=0;entryDy=0;" edge="1" parent="1" source="jTYP-uvuEeYxCYvf-vFX-2" target="jTYP-uvuEeYxCYvf-vFX-4">
          <mxGeometry relative="1" as="geometry" />
        </mxCell>
        <mxCell id="jTYP-uvuEeYxCYvf-vFX-7" style="rounded=0;orthogonalLoop=1;jettySize=auto;html=1;entryX=0;entryY=0.5;entryDx=0;entryDy=0;" edge="1" parent="1" source="jTYP-uvuEeYxCYvf-vFX-2" target="jTYP-uvuEeYxCYvf-vFX-5">
          <mxGeometry relative="1" as="geometry" />
        </mxCell>
        <mxCell id="jTYP-uvuEeYxCYvf-vFX-12" style="edgeStyle=orthogonalEdgeStyle;rounded=0;orthogonalLoop=1;jettySize=auto;html=1;entryX=0;entryY=0.5;entryDx=0;entryDy=0;" edge="1" parent="1" source="jTYP-uvuEeYxCYvf-vFX-2" target="jTYP-uvuEeYxCYvf-vFX-11">
          <mxGeometry relative="1" as="geometry" />
        </mxCell>
        <mxCell id="jTYP-uvuEeYxCYvf-vFX-2" value="Upload files" style="ellipse;whiteSpace=wrap;html=1;" vertex="1" parent="1">
          <mxGeometry x="100" y="250" width="120" height="80" as="geometry" />
        </mxCell>
        <mxCell id="jTYP-uvuEeYxCYvf-vFX-13" style="edgeStyle=orthogonalEdgeStyle;rounded=0;orthogonalLoop=1;jettySize=auto;html=1;" edge="1" parent="1" source="jTYP-uvuEeYxCYvf-vFX-3" target="jTYP-uvuEeYxCYvf-vFX-14">
          <mxGeometry relative="1" as="geometry">
            <mxPoint x="360" y="470" as="targetPoint" />
          </mxGeometry>
        </mxCell>
        <mxCell id="jTYP-uvuEeYxCYvf-vFX-3" value="Chat" style="ellipse;whiteSpace=wrap;html=1;" vertex="1" parent="1">
          <mxGeometry x="100" y="430" width="120" height="80" as="geometry" />
        </mxCell>
        <mxCell id="jTYP-uvuEeYxCYvf-vFX-4" value="Show CV" style="ellipse;whiteSpace=wrap;html=1;" vertex="1" parent="1">
          <mxGeometry x="240" y="110" width="120" height="80" as="geometry" />
        </mxCell>
        <mxCell id="jTYP-uvuEeYxCYvf-vFX-9" value="Chatbot" style="swimlane;whiteSpace=wrap;html=1;" vertex="1" parent="1">
          <mxGeometry x="260" y="220" width="430" height="330" as="geometry" />
        </mxCell>
        <mxCell id="jTYP-uvuEeYxCYvf-vFX-5" value="Provide summary" style="ellipse;whiteSpace=wrap;html=1;" vertex="1" parent="jTYP-uvuEeYxCYvf-vFX-9">
          <mxGeometry x="90" y="120" width="120" height="80" as="geometry" />
        </mxCell>
        <mxCell id="jTYP-uvuEeYxCYvf-vFX-11" value="Process into database" style="ellipse;whiteSpace=wrap;html=1;" vertex="1" parent="jTYP-uvuEeYxCYvf-vFX-9">
          <mxGeometry x="90" y="30" width="120" height="80" as="geometry" />
        </mxCell>
        <mxCell id="jTYP-uvuEeYxCYvf-vFX-14" value="LLMs SQL tools" style="ellipse;whiteSpace=wrap;html=1;" vertex="1" parent="jTYP-uvuEeYxCYvf-vFX-9">
          <mxGeometry x="150" y="210" width="120" height="80" as="geometry" />
        </mxCell>
        <mxCell id="jTYP-uvuEeYxCYvf-vFX-17" style="edgeStyle=orthogonalEdgeStyle;rounded=0;orthogonalLoop=1;jettySize=auto;html=1;entryX=0.5;entryY=0;entryDx=0;entryDy=0;" edge="1" parent="1" source="jTYP-uvuEeYxCYvf-vFX-10" target="jTYP-uvuEeYxCYvf-vFX-14">
          <mxGeometry relative="1" as="geometry">
            <Array as="points">
              <mxPoint x="610" y="400" />
              <mxPoint x="470" y="400" />
            </Array>
          </mxGeometry>
        </mxCell>
        <mxCell id="jTYP-uvuEeYxCYvf-vFX-10" value="mySQL" style="shape=cylinder3;whiteSpace=wrap;html=1;boundedLbl=1;backgroundOutline=1;size=15;" vertex="1" parent="1">
          <mxGeometry x="560" y="80" width="100" height="110" as="geometry" />
        </mxCell>
        <mxCell id="jTYP-uvuEeYxCYvf-vFX-16" style="edgeStyle=orthogonalEdgeStyle;rounded=0;orthogonalLoop=1;jettySize=auto;html=1;entryX=0;entryY=0.5;entryDx=0;entryDy=0;entryPerimeter=0;" edge="1" parent="1" source="jTYP-uvuEeYxCYvf-vFX-11" target="jTYP-uvuEeYxCYvf-vFX-10">
          <mxGeometry relative="1" as="geometry" />
        </mxCell>
        <mxCell id="jTYP-uvuEeYxCYvf-vFX-22" style="edgeStyle=orthogonalEdgeStyle;rounded=0;orthogonalLoop=1;jettySize=auto;html=1;" edge="1" parent="1" source="jTYP-uvuEeYxCYvf-vFX-21" target="jTYP-uvuEeYxCYvf-vFX-1">
          <mxGeometry relative="1" as="geometry">
            <Array as="points">
              <mxPoint x="780" y="590" />
              <mxPoint x="35" y="590" />
            </Array>
          </mxGeometry>
        </mxCell>
        <mxCell id="jTYP-uvuEeYxCYvf-vFX-21" value="Response" style="ellipse;whiteSpace=wrap;html=1;" vertex="1" parent="1">
          <mxGeometry x="720" y="430" width="120" height="80" as="geometry" />
        </mxCell>
        <mxCell id="jTYP-uvuEeYxCYvf-vFX-18" style="edgeStyle=orthogonalEdgeStyle;rounded=0;orthogonalLoop=1;jettySize=auto;html=1;" edge="1" parent="1" source="jTYP-uvuEeYxCYvf-vFX-14" target="jTYP-uvuEeYxCYvf-vFX-21">
          <mxGeometry relative="1" as="geometry">
            <mxPoint x="710" y="470" as="targetPoint" />
          </mxGeometry>
        </mxCell>
        <mxCell id="jTYP-uvuEeYxCYvf-vFX-23" style="edgeStyle=orthogonalEdgeStyle;rounded=0;orthogonalLoop=1;jettySize=auto;html=1;entryX=0.5;entryY=0;entryDx=0;entryDy=0;" edge="1" parent="1" source="jTYP-uvuEeYxCYvf-vFX-5" target="jTYP-uvuEeYxCYvf-vFX-21">
          <mxGeometry relative="1" as="geometry" />
        </mxCell>
      </root>
    </mxGraphModel>
  </diagram>
</mxfile>
